<svg width="115" height="70" viewBox="0 0 115 70" fill="none" xmlns="http://www.w3.org/2000/svg">
<g clip-path="url(#clip0_1162_541)">
<path d="M32.7169 25.7363C32.7169 27.147 32.8677 28.2908 33.1317 29.1295C33.4334 29.9683 33.8105 30.8834 34.3385 31.8746C34.527 32.1796 34.6024 32.4847 34.6024 32.7515C34.6024 33.1328 34.3762 33.5141 33.8859 33.8953L31.5101 35.4966C31.1707 35.7254 30.8313 35.8398 30.5296 35.8398C30.1524 35.8398 29.7753 35.6491 29.3982 35.306C28.8702 34.7341 28.4177 34.1241 28.0406 33.5141C27.6635 32.8659 27.2863 32.1415 26.8715 31.2646C23.93 34.7722 20.2342 36.526 15.7842 36.526C12.6164 36.526 10.0897 35.611 8.24185 33.781C6.39397 31.9509 5.45117 29.5108 5.45117 26.4607C5.45117 23.22 6.58253 20.5893 8.88295 18.6067C11.1834 16.6241 14.238 15.6328 18.1224 15.6328C19.4046 15.6328 20.7245 15.7472 22.1198 15.9379C23.5152 16.1285 24.9482 16.4335 26.4567 16.7766V13.9934C26.4567 11.0958 25.8533 9.07512 24.6842 7.89321C23.4774 6.71129 21.441 6.1394 18.5372 6.1394C17.2173 6.1394 15.8596 6.2919 14.4643 6.63504C13.069 6.97817 11.7113 7.39756 10.3914 7.93133C9.78804 8.19822 9.33549 8.35072 9.07151 8.42697C8.80753 8.50323 8.61897 8.54135 8.46812 8.54135C7.94016 8.54135 7.67617 8.16009 7.67617 7.35944V5.49125C7.67617 4.88123 7.7516 4.42371 7.94016 4.15683C8.12871 3.88995 8.46812 3.62306 8.99609 3.35618C10.316 2.66991 11.8999 2.09801 13.7478 1.6405C15.5957 1.14485 17.5567 0.916096 19.6308 0.916096C24.1185 0.916096 27.3995 1.94551 29.5113 4.00432C31.5855 6.06314 32.6414 9.1895 32.6414 13.3834V25.7363H32.7169ZM17.4058 31.5315C18.6503 31.5315 19.9325 31.3027 21.2902 30.8452C22.6478 30.3877 23.8546 29.5489 24.8728 28.4051C25.4762 27.6807 25.9287 26.8801 26.155 25.9651C26.3813 25.05 26.5321 23.9444 26.5321 22.6481V21.0468C25.4385 20.7799 24.2694 20.5511 23.0626 20.3986C21.8558 20.2461 20.6868 20.1699 19.5177 20.1699C16.991 20.1699 15.1431 20.6655 13.8986 21.6949C12.6541 22.7243 12.0507 24.1731 12.0507 26.0794C12.0507 27.8714 12.5033 29.2058 13.4461 30.1208C14.3512 31.074 15.6711 31.5315 17.4058 31.5315ZM47.6885 35.6491C47.0096 35.6491 46.5571 35.5348 46.2554 35.2679C45.9537 35.0391 45.6897 34.5054 45.4635 33.781L36.6012 4.30933C36.3749 3.54681 36.2618 3.05117 36.2618 2.78428C36.2618 2.17426 36.5635 1.83113 37.1668 1.83113H40.8626C41.5791 1.83113 42.0694 1.94551 42.3334 2.21239C42.6351 2.44115 42.8613 2.97492 43.0876 3.69932L49.4232 28.9389L55.3063 3.69932C55.4948 2.93679 55.7211 2.44115 56.0228 2.21239C56.3245 1.98363 56.8524 1.83113 57.5313 1.83113H60.5482C61.2647 1.83113 61.755 1.94551 62.0567 2.21239C62.3584 2.44115 62.6224 2.97492 62.7732 3.69932L68.7317 29.2439L75.2558 3.69932C75.4821 2.93679 75.7461 2.44115 76.0101 2.21239C76.3118 1.98363 76.802 1.83113 77.4808 1.83113H80.988C81.5914 1.83113 81.9308 2.13614 81.9308 2.78428C81.9308 2.97492 81.8931 3.16555 81.8554 3.3943C81.8177 3.62306 81.7423 3.92807 81.5914 4.34746L72.5029 33.8191C72.2766 34.5816 72.0126 35.0772 71.7109 35.306C71.4092 35.5348 70.919 35.6873 70.2779 35.6873H67.0346C66.3181 35.6873 65.8279 35.5729 65.5262 35.306C65.2245 35.0391 64.9605 34.5435 64.8096 33.781L58.9643 9.1895L53.1567 33.7428C52.9681 34.5054 52.7418 35.001 52.4402 35.2679C52.1385 35.5348 51.6105 35.6491 50.9317 35.6491H47.6885ZM96.1482 36.6785C94.1872 36.6785 92.2262 36.4498 90.3406 35.9923C88.455 35.5348 86.9842 35.0391 86.0037 34.4672C85.4003 34.1241 84.9855 33.7428 84.8346 33.3997C84.6838 33.0566 84.6084 32.6753 84.6084 32.3322V30.3877C84.6084 29.5871 84.9101 29.2058 85.4757 29.2058C85.702 29.2058 85.9283 29.2439 86.1546 29.3202C86.3808 29.3964 86.7202 29.5489 87.0974 29.7014C88.3796 30.2733 89.7749 30.7309 91.2457 31.0359C92.7541 31.3409 94.2249 31.4934 95.7334 31.4934C98.1092 31.4934 99.9571 31.074 101.239 30.2352C102.522 29.3964 103.2 28.1764 103.2 26.6132C103.2 25.5457 102.861 24.6688 102.182 23.9444C101.503 23.22 100.221 22.5718 98.3732 21.9618L92.905 20.2461C90.152 19.3692 88.1156 18.0729 86.8711 16.3572C85.6266 14.6797 84.9855 12.8115 84.9855 10.8289C84.9855 9.22762 85.3249 7.81695 86.0037 6.59691C86.6825 5.37687 87.5876 4.30934 88.719 3.47056C89.8503 2.59365 91.1325 1.94551 92.641 1.48799C94.1495 1.03048 95.7334 0.839844 97.3927 0.839844C98.2224 0.839844 99.0897 0.87797 99.9194 0.992349C100.787 1.10673 101.579 1.25923 102.371 1.41174C103.125 1.60237 103.841 1.793 104.52 2.02176C105.199 2.25052 105.727 2.47927 106.104 2.70803C106.632 3.01304 107.009 3.31805 107.235 3.66119C107.462 3.9662 107.575 4.38559 107.575 4.91936V6.71129C107.575 7.51194 107.273 7.93133 106.708 7.93133C106.406 7.93133 105.916 7.77883 105.274 7.47382C103.125 6.48253 100.711 5.98689 98.0338 5.98689C95.8842 5.98689 94.1872 6.33003 93.0181 7.05443C91.8491 7.77883 91.2457 8.88449 91.2457 10.4477C91.2457 11.5152 91.6228 12.4302 92.377 13.1546C93.1313 13.879 94.5266 14.6034 96.5253 15.2516L101.88 16.9673C104.596 17.8442 106.557 19.0642 107.726 20.6274C108.895 22.1906 109.46 23.9825 109.46 25.9651C109.46 27.6045 109.121 29.0914 108.48 30.3877C107.801 31.684 106.896 32.8278 105.727 33.7428C104.558 34.696 103.163 35.3823 101.541 35.8779C99.844 36.4117 98.0715 36.6785 96.1482 36.6785Z" fill="#252F3E"/>
<path fill-rule="evenodd" clip-rule="evenodd" d="M103.277 55.2084C90.8694 64.4731 72.8431 69.3914 57.3435 69.3914C35.6215 69.3914 16.0491 61.2705 1.266 47.7738C0.0969325 46.7062 1.15286 45.2574 2.5482 46.0962C18.538 55.4753 38.2613 61.1561 58.6635 61.1561C72.4283 61.1561 87.5508 58.2585 101.466 52.3108C103.541 51.3576 105.313 53.6833 103.277 55.2084Z" fill="#FF9900"/>
<path fill-rule="evenodd" clip-rule="evenodd" d="M108.443 49.2609C106.859 47.2021 97.9588 48.2696 93.9237 48.7653C92.7169 48.9178 92.5283 47.8502 93.622 47.0496C100.712 42.0169 112.365 43.4657 113.722 45.1433C115.08 46.859 113.345 58.64 106.708 64.2827C105.69 65.1596 104.709 64.7021 105.162 63.5583C106.67 59.7838 110.027 51.2816 108.443 49.2609Z" fill="#FF9900"/>
</g>
<defs>
<clipPath id="clip0_1162_541">
<rect width="114.644" height="69.3898" fill="white" transform="translate(0.134766 0.420898)"/>
</clipPath>
</defs>
</svg>
