<svg width="149" height="25" viewBox="0 0 149 25" fill="none" xmlns="http://www.w3.org/2000/svg">
<g clip-path="url(#clip0_1162_547)">
<path d="M52.3861 14.7535C57.2909 14.7535 59.7433 11.2106 59.7433 7.66754C59.7433 4.12471 57.2907 0.722972 52.1136 0.722972C48.2988 0.581055 34.2656 0.581055 34.2656 0.581055V24.5329H38.6248V4.40786C42.031 4.40786 50.6144 4.40786 52.3857 4.40786C54.8379 4.40786 56.0642 5.25784 56.0642 7.66754C56.0642 9.65149 54.8382 10.7853 52.5218 10.7853H41.0779L54.7023 24.3906H60.016L50.206 14.4699C51.1601 14.7535 52.2499 14.7535 52.3861 14.7535Z" fill="#16325B"/>
<path d="M68.4619 0.581055H64.2383V24.5325H68.4619V0.581055Z" fill="#16325B"/>
<path d="M122.007 4.26594V0.581055H113.015H108.792H101.298L98.8457 4.26594H108.792V24.5325H113.015V4.26594H122.007Z" fill="#16325B"/>
<path d="M90.5335 10.5016C88.3537 10.5016 82.9043 10.5016 79.7701 10.5016C77.5907 10.5016 76.3642 9.50971 76.3642 7.52535C76.3642 5.25798 77.8631 4.26594 79.7701 4.26594C82.7677 4.26594 94.4843 4.26594 94.4843 4.26594L96.3917 0.581055C96.3917 0.581055 82.0862 0.581055 79.6339 0.581055C75.8188 0.581055 72.6855 3.5569 72.6855 7.66754C72.6855 11.352 75.683 14.3281 79.77 14.3281C82.0866 14.3281 89.0345 14.3281 90.5334 14.3281C92.9862 14.3281 94.3485 15.4624 94.3485 17.5881C94.3485 19.4303 92.8496 20.7061 90.5334 20.7061H75.6831L73.5035 24.5325C73.5035 24.5325 86.5827 24.5325 91.0785 24.5325C95.5746 24.5325 98.0266 21.1318 98.0266 17.3051C98.027 13.761 95.1659 10.5016 90.5335 10.5016Z" fill="#16325B"/>
<path d="M14.3744 2.14022C13.4209 3.69869 0.75 24.5328 0.75 24.5328H5.2459L9.46975 17.4465H18.4618L20.778 13.6198H11.7857L16.6904 5.39963L28.1351 24.3905H32.6311C32.6311 24.3905 20.0964 3.84061 19.0062 1.99831C17.7802 0.156278 15.6007 0.297782 14.3744 2.14022Z" fill="#16325B"/>
<path d="M143.669 24.5326H148.165C148.165 24.5326 135.63 3.98245 134.54 2.14001C133.314 0.0140062 131.134 0.156061 129.908 1.99823C128.954 3.55684 116.283 24.3904 116.283 24.3904H120.779L125.003 17.3045H134.131L136.447 13.4778H127.455L132.36 5.2575L143.669 24.5326Z" fill="#16325B"/>
</g>
<defs>
<clipPath id="clip0_1162_547">
<rect width="147.831" height="24.1356" fill="white" transform="translate(0.542969 0.489258)"/>
</clipPath>
</defs>
</svg>
