<svg width="154" height="49" viewBox="0 0 154 49" fill="none" xmlns="http://www.w3.org/2000/svg">
<path fill-rule="evenodd" clip-rule="evenodd" d="M39.8129 21.4101V20.9736L36.1011 17.7913H35.6685C34.6478 18.9146 33.0717 19.7564 31.3086 19.7564C28.5561 19.7564 26.3904 17.6661 26.3904 14.7966C26.3904 11.9272 28.5561 9.83689 31.3086 9.83689C33.0717 9.83689 34.6478 10.6787 35.6685 11.802H36.1011L39.8129 8.6197V8.18316C37.8642 5.81277 34.8034 4.28418 31.3385 4.28418C24.9685 4.28418 20.1445 8.77611 20.1445 14.7966C20.1445 15.0298 20.1974 15.2446 20.2131 15.4735C22.8199 17.2395 25.1212 18.653 27.1028 19.9469C29.9595 21.7471 32.2651 23.4037 34.1638 24.9437C36.5308 24.3479 38.4496 23.0553 39.8129 21.4101ZM22.4673 21.2978C23.9549 23.1179 26.0549 24.4232 28.5318 24.9806C26.8587 24.0436 25.2383 23.1236 23.7293 22.1055C23.2867 21.8324 22.8927 21.568 22.4673 21.2978Z" fill="#FC0000"/>
<path fill-rule="evenodd" clip-rule="evenodd" d="M61.2984 23.9692L60.3704 19.9764L60.0306 19.7574C59.845 19.8513 59.6908 19.9764 59.2269 19.9764C58.5145 19.9764 58.0819 19.227 57.7107 18.6355C57.0926 17.6984 56.5972 17.1993 56.1646 16.9818C58.4217 15.9836 59.9378 14.1123 59.9378 11.4291C59.9378 7.27983 57.0926 4.65918 51.8046 4.65918H42.5879V24.9362H48.711V17.8236H49.2678C50.6283 17.8236 52.3614 20.7556 53.1652 22.0667C54.8355 24.7186 56.1646 25.3101 58.5459 25.3101C59.6594 25.3101 60.5874 24.9049 61.1442 24.4058L61.2984 23.9692ZM53.6905 11.7718C53.6905 13.1141 52.7012 13.7682 51.5562 13.7682H48.711V9.65022H51.5562C52.7012 9.65022 53.6905 10.3996 53.6905 11.7718Z" fill="#FC0000"/>
<path fill-rule="evenodd" clip-rule="evenodd" d="M84.9542 14.8035C84.9542 8.78295 80.1303 4.29102 73.7288 4.29102C67.3259 4.29102 62.502 8.78295 62.502 14.8035C62.502 20.824 67.3259 25.3159 73.7288 25.3159C80.1303 25.3159 84.9542 20.7927 84.9542 14.8035ZM78.7069 14.8035C78.7069 17.7043 76.4798 19.7632 73.7288 19.7632C70.9763 19.7632 68.7492 17.7043 68.7492 14.8035C68.7492 11.9027 70.9763 9.84372 73.7288 9.84372C76.4798 9.84372 78.7069 11.9027 78.7069 14.8035Z" fill="#FC0000"/>
<path fill-rule="evenodd" clip-rule="evenodd" d="M98.6029 4.66602L94.7911 15.8269L91.1792 4.66602H85.3259L85.0547 5.13384L92.5354 24.9416H96.2473L100.459 13.893L104.685 24.9416H108.396L115.891 5.13384L115.606 4.66602H109.767L106.141 15.898L102.315 4.66602H98.6029Z" fill="#FC0000"/>
<path fill-rule="evenodd" clip-rule="evenodd" d="M138.305 14.7742C138.305 8.72239 134.253 4.66699 127.666 4.66699H118.295V24.944H127.666C134.253 24.944 138.305 20.8886 138.305 14.7742ZM132.057 14.8055C132.057 18.1115 130.109 19.9529 127.419 19.9529H124.418V9.65803H127.419C130.109 9.65803 132.057 11.4995 132.057 14.8055Z" fill="#FC0000"/>
<path fill-rule="evenodd" clip-rule="evenodd" d="M65.957 32.9735H71.9531V48.258H78.0919V32.9735H84.2306V27.9824H65.957V32.9735Z" fill="#FC0000"/>
<path fill-rule="evenodd" clip-rule="evenodd" d="M103.789 34.7504C103.789 30.6011 100.944 27.9805 95.6562 27.9805H86.4395V48.2575H92.564V41.1449H94.0173L97.8205 48.2575H103.914L104.192 47.7896L100.109 40.2718C102.305 39.2423 103.789 37.4023 103.789 34.7504ZM97.5421 35.0931C97.5421 36.4354 96.5528 37.0895 95.4078 37.0895H92.564V32.9715H95.4078C96.5528 32.9715 97.5421 33.7209 97.5421 35.0931Z" fill="#FC0000"/>
<path fill-rule="evenodd" clip-rule="evenodd" d="M107.502 48.258H113.641V27.9824H107.502V48.258Z" fill="#FC0000"/>
<path fill-rule="evenodd" clip-rule="evenodd" d="M123.635 35.1889V27.9824H117.496V48.258H123.635V42.0156L124.777 40.7074L129.916 48.258H136.341L136.626 47.7887L129.203 37.053L136.055 28.4502L135.912 27.9824H129.345L123.635 35.1889Z" fill="#FC0000"/>
<path fill-rule="evenodd" clip-rule="evenodd" d="M144.477 43.2664V40.4652H151.472V35.7799H144.477V32.9729H153.614V27.9805H138.338V48.2575H153.756V43.2664H144.477Z" fill="#FC0000"/>
<path fill-rule="evenodd" clip-rule="evenodd" d="M56.1072 48.4938C60.5928 48.4938 64.486 46.3111 64.486 42.1021C64.486 37.5149 60.5614 36.329 57.098 35.3308C55.736 34.9255 54.3427 34.4563 54.3427 33.4581C54.3427 32.74 55.1164 32.3035 56.2928 32.3035C58.3043 32.3035 60.0046 33.5519 60.8698 34.3639H61.3024L64.1776 30.9327V30.4962C62.6629 28.7813 59.5721 27.4717 56.1686 27.4717C51.4061 27.4717 48.0997 30.0283 48.0997 33.7396C48.0997 37.7339 51.7458 39.4815 54.8381 40.3545C56.8496 40.9162 58.213 41.0101 58.213 42.1021C58.213 42.8828 57.2522 43.3506 55.766 43.3506C53.8787 43.3506 51.5916 42.1334 50.4795 41.0413H50.047L47.2031 44.5976V45.0342C49.0262 47.0604 52.3026 48.4938 56.1072 48.4938Z" fill="#FC0000"/>
<path fill-rule="evenodd" clip-rule="evenodd" d="M43.0972 43.8191C41.6139 40.4377 38.6345 36.0994 26.9651 29.9039C21.5829 26.9235 12.389 22.3349 4.12305 13.6084C4.87255 16.7566 8.71286 23.6744 25.2234 32.307C29.7975 34.7997 37.5323 37.1374 43.0972 43.8077" fill="#FC0000"/>
<path fill-rule="evenodd" clip-rule="evenodd" d="M42.3548 38.0314C40.9472 34.0358 38.406 28.9196 26.3511 21.3235C20.4822 17.4928 11.8607 12.6824 0.525391 0.420898C1.33628 3.72693 4.91962 12.324 22.9819 23.4849C28.9152 27.4891 36.5729 29.959 42.3548 38.0314Z" fill="#FC0000"/>
</svg>
