<svg width="121" height="90" viewBox="0 0 121 90" fill="none" xmlns="http://www.w3.org/2000/svg">
<g clip-path="url(#clip0_1162_565)">
<path d="M119.853 86.9613C119.853 88.2582 118.902 89.1287 117.777 89.1287V89.1208C116.619 89.1287 115.686 88.2582 115.686 86.9617C115.686 85.6654 116.619 84.7974 117.777 84.7974C118.903 84.7971 119.853 85.6651 119.853 86.9613ZM120.695 86.9613C120.695 85.1816 119.315 84.1484 117.777 84.1484C116.228 84.1484 114.848 85.1816 114.848 86.9613C114.848 88.74 116.228 89.7773 117.777 89.7773C119.315 89.7773 120.695 88.74 120.695 86.9613ZM117.293 87.1993H117.605L118.329 88.4728H119.125L118.322 87.1457C118.737 87.1161 119.078 86.9183 119.078 86.3595C119.078 85.6651 118.6 85.4419 117.79 85.4419H116.619V88.4728H117.292V87.1993M117.293 86.6862V85.9564H117.761C118.016 85.9564 118.363 85.977 118.363 86.2883C118.363 86.627 118.183 86.6862 117.883 86.6862H117.293Z" fill="black"/>
<path d="M101.041 71.458L104.68 81.4291H97.2893L101.041 71.458ZM97.1437 67.5756L88.7577 88.857H94.6794L96.0058 85.0967H105.93L107.185 88.857H113.614L105.165 67.5728L97.1437 67.5756ZM80.3076 88.8649H86.3154V67.569L80.3066 67.5677L80.3076 88.8649ZM38.6005 67.5677L33.5881 84.4463L28.7865 67.569L22.3042 67.5677L29.1618 88.8649H37.8169L44.7298 67.5677H38.6005ZM62.8847 72.205H65.4668C69.2129 72.205 71.6357 73.8895 71.6357 78.261C71.6357 82.6335 69.2129 84.3184 65.4668 84.3184H62.8847V72.205ZM56.9274 67.5677V88.8649H66.6672C71.8564 88.8649 73.5509 88.001 75.3831 86.0627C76.6772 84.7018 77.5144 81.7153 77.5144 78.4505C77.5144 75.456 76.806 72.7869 75.5709 71.1237C73.3456 68.1492 70.14 67.5677 65.3559 67.5677H56.9274ZM0.0175781 67.5381V88.8649H6.0762V72.6714L10.7706 72.6727C12.325 72.6727 13.4331 73.0607 14.1816 73.8617C15.131 74.8745 15.5186 76.5095 15.5186 79.5001V88.8649H21.3895V77.0817C21.3895 68.672 16.0378 67.5381 10.8015 67.5381H0.0175781ZM47.2583 67.5677L47.2607 88.8649H53.2658V67.5677H47.2583Z" fill="black"/>
<path d="M16.1633 25.1616C16.1633 25.1616 23.8903 13.7426 39.3186 12.5612V8.41844C22.2298 9.79307 7.43164 24.2898 7.43164 24.2898C7.43164 24.2898 15.8131 48.5581 39.3186 50.7802V46.3767C22.0692 44.2031 16.1633 25.1616 16.1633 25.1616ZM39.3186 37.6192V41.652C26.2819 39.324 22.6632 25.7504 22.6632 25.7504C22.6632 25.7504 28.9227 18.805 39.3186 17.6787V22.1038C39.3107 22.1038 39.3052 22.1014 39.2987 22.1014C33.8424 21.4456 29.5799 26.551 29.5799 26.551C29.5799 26.551 31.969 35.1458 39.3186 37.6192ZM39.3186 0.777344V8.41844C39.8203 8.37993 40.3219 8.34725 40.8263 8.33006C60.2544 7.67421 72.9132 24.2898 72.9132 24.2898C72.9132 24.2898 58.3742 41.9973 43.2271 41.9973C41.8389 41.9973 40.5393 41.8683 39.3186 41.6516V46.3767C40.3624 46.5094 41.4447 46.5875 42.574 46.5875C56.6694 46.5875 66.8628 39.3773 76.7331 30.8438C78.3695 32.1565 85.0692 35.3501 86.4464 36.7481C77.0617 44.6179 55.1898 50.9617 42.79 50.9617C41.5948 50.9617 40.4469 50.8892 39.3186 50.7802V57.4198H92.8941V0.777344H39.3186ZM39.3186 17.6787V12.5612C39.8151 12.5265 40.3154 12.5 40.8263 12.4839C54.797 12.0443 63.9627 24.5088 63.9627 24.5088C63.9627 24.5088 54.0629 38.2802 43.4482 38.2802C41.9206 38.2802 40.5513 38.0343 39.3186 37.6192V22.1038C44.7575 22.7621 45.8518 25.1685 49.1216 30.6281L56.394 24.4861C56.394 24.4861 51.0853 17.5126 42.1363 17.5126C41.1635 17.5122 40.2327 17.5807 39.3186 17.6787Z" fill="#77B900"/>
</g>
<defs>
<clipPath id="clip0_1162_565">
<rect width="120.678" height="89" fill="white" transform="translate(0.0175781 0.777344)"/>
</clipPath>
</defs>
</svg>
