<svg width="153" height="39" viewBox="0 0 153 39" fill="none" xmlns="http://www.w3.org/2000/svg">
<g clip-path="url(#clip0_1162_588)">
<path d="M37.6942 5.52365H47.0375C50.5035 5.52365 52.764 5.67535 54.7231 7.79549C56.0794 9.31 56.8329 11.1274 56.8329 13.2478C56.8329 15.3681 56.0794 17.1855 54.5724 18.7001C53.0654 20.2146 51.1063 21.1234 46.1333 21.1234H41.6123V33.694H37.6942V5.52365ZM41.6123 17.9428H46.1333C48.6951 17.9428 52.6133 17.7917 52.6133 13.0963C52.6133 8.70421 48.9965 8.70422 46.8868 8.70422H41.6123V17.9428ZM69.3408 33.694C69.0394 32.7852 69.0394 31.7251 69.0394 30.8164C67.231 33.9969 64.6692 34.2998 63.0115 34.2998C58.4905 34.2998 56.0794 31.7251 56.0794 28.5446C56.0794 27.03 56.6822 24.4553 59.5454 22.7893C61.6552 21.5777 64.6692 21.5777 66.3268 21.5777C67.231 21.5777 67.8338 21.5777 68.8887 21.7294C68.8887 19.3062 68.8887 18.246 68.1352 17.3372C67.3817 16.4285 65.8747 16.1256 64.8199 16.1256C61.2031 16.1256 60.9017 18.7004 60.9017 19.4576H57.2849C57.4356 18.3974 57.5863 17.0343 58.6412 15.8227C60.1482 14.1567 62.8608 13.7024 64.9706 13.7024C67.8338 13.7024 70.8478 14.6111 71.9027 16.58C72.5055 17.7916 72.5055 18.7004 72.5055 19.6091L72.3548 28.9991C72.3548 29.302 72.3548 31.8768 72.6562 33.8457H69.3408V33.694ZM66.7789 24.001C65.2719 24.001 59.6961 24.001 59.6961 27.9387C59.6961 29.1504 60.4496 31.2708 63.765 31.2708C65.5733 31.2708 67.0803 30.5135 67.9845 29.1504C68.738 27.7873 68.8887 26.7271 68.8887 24.001C68.2859 24.1527 67.6831 24.001 66.7789 24.001ZM75.6701 5.52365H79.2869V33.694H75.6701V5.52365ZM94.9595 33.694C94.6581 32.7852 94.6581 31.7251 94.6581 30.8164C92.8497 33.9969 90.2879 34.2998 88.6302 34.2998C84.1092 34.2998 81.6981 31.7251 81.6981 28.5446C81.6981 27.03 82.3008 24.4553 85.1641 22.7893C87.2739 21.5777 90.2879 21.5777 91.9455 21.5777C92.8497 21.5777 93.4525 21.5777 94.5074 21.7294C94.5074 19.3062 94.5074 18.246 93.7539 17.3372C93.0004 16.4285 91.4934 16.1256 90.4386 16.1256C86.8218 16.1256 86.5204 18.7004 86.5204 19.4576H82.9036C83.0543 18.3974 83.205 17.0343 84.2599 15.8227C85.7669 14.1567 88.4795 13.7024 90.5892 13.7024C93.4525 13.7024 96.4665 14.6111 97.5214 16.58C98.1242 17.7916 98.1242 18.7004 98.1242 19.6091L97.9735 28.9991C97.9735 29.302 97.9735 31.8768 98.2749 33.8457H94.9595V33.694ZM92.5483 24.001C91.0413 24.001 85.4655 24.001 85.4655 27.9387C85.4655 29.1504 86.219 31.2708 89.5344 31.2708C91.3427 31.2708 92.8497 30.5135 93.7539 29.1504C94.5074 27.7873 94.6581 26.7271 94.6581 24.001C93.9046 24.1527 93.4525 24.001 92.5483 24.001ZM101.44 16.4283V14.1565H105.056V17.337C105.508 16.5798 106.865 13.8536 111.235 13.8536C113.043 13.8536 118.318 14.4594 118.318 20.5176V33.8454H114.55V21.4263C114.55 20.2146 114.4 19.003 113.495 18.0943C112.591 17.1856 111.235 16.7312 110.029 16.7312C107.317 16.7312 104.906 18.7001 104.906 22.6379V33.8454H101.289V16.4283H101.44ZM119.523 14.1565H122.989V9.91578L126.606 8.70422V14.0051H130.976V16.7312H126.606V28.3931C126.606 29.3018 126.606 30.9678 129.168 30.9678C129.921 30.9678 130.675 30.8161 130.976 30.8161V33.6937C130.374 33.8454 129.319 33.9966 127.962 33.9966C124.496 33.9966 122.989 32.9364 122.989 29.7558V16.7309H119.523V14.1565ZM133.538 5.52365H137.908V9.61291H133.538V5.52365ZM133.84 14.1565H137.456V33.694H133.84V14.1565ZM140.922 18.0943C140.922 16.7312 140.772 15.3681 140.772 14.1565H144.389L144.539 17.9428C145.293 15.2166 147.553 14.3079 149.211 14.1565C150.266 14.0048 151.17 14.0048 151.773 14.0048V17.6397C151.622 17.6397 151.321 17.488 151.019 17.488C150.718 17.488 150.416 17.488 149.964 17.488C145.594 17.488 144.69 20.0627 144.69 23.3947V33.845H141.073V18.0938L140.922 18.0943ZM15.2402 1.7373C7.70525 1.7373 1.52662 7.94691 1.52662 15.5196C1.52662 23.0923 7.70525 29.3018 15.2402 29.3018C22.7751 29.3018 28.9537 23.0923 28.9537 15.5196C28.9537 7.94691 22.7751 1.7373 15.2402 1.7373ZM15.2402 25.0612C9.96572 25.0612 5.74617 20.8204 5.74617 15.5196C5.74617 10.2187 9.96572 5.97806 15.2402 5.97806C20.5146 5.97806 24.7341 10.2187 24.7341 15.5196C24.5835 20.8204 20.3639 25.0612 15.2402 25.0612ZM27.4467 28.0902L15.2402 33.3911L3.0336 28.0902L0.923828 31.8765L15.2402 37.9346L29.5565 31.8765L27.4467 28.0902Z" fill="#010101"/>
</g>
<defs>
<clipPath id="clip0_1162_588">
<rect width="152.356" height="37.7119" fill="white" transform="translate(0.169922 0.980469)"/>
</clipPath>
</defs>
</svg>
