<svg width="289" height="212" viewBox="0 0 289 212" fill="none" xmlns="http://www.w3.org/2000/svg">
<g clip-path="url(#clip0_1162_171)">
<path d="M286.594 205.292C286.594 208.381 284.325 210.455 281.639 210.455V210.436C278.877 210.455 276.649 208.381 276.649 205.293C276.649 202.205 278.877 200.138 281.639 200.138C284.326 200.137 286.594 202.205 286.594 205.292ZM288.604 205.292C288.604 201.053 285.31 198.592 281.639 198.592C277.943 198.592 274.648 201.053 274.648 205.292C274.648 209.529 277.943 212 281.639 212C285.311 212 288.604 209.529 288.604 205.292ZM280.484 205.859H281.229L282.958 208.893H284.855L282.941 205.731C283.93 205.661 284.744 205.19 284.744 203.859C284.744 202.205 283.603 201.673 281.671 201.673H278.876V208.893H280.483V205.859M280.484 204.637V202.898H281.601C282.209 202.898 283.038 202.948 283.038 203.689C283.038 204.496 282.609 204.637 281.892 204.637H280.484Z" fill="black"/>
<path d="M241.697 168.361L250.382 192.112H232.744L241.697 168.361ZM232.397 159.113L212.383 209.806H226.515L229.681 200.848H253.365L256.361 209.806H271.703L251.54 159.106L232.397 159.113ZM192.217 209.824H206.555V159.097L192.215 159.094L192.217 209.824ZM92.6822 159.094L80.7201 199.299L69.261 159.097L53.7908 159.094L70.1567 209.824H90.8123L107.31 159.094H92.6822ZM150.637 170.14H156.799C165.739 170.14 171.521 174.153 171.521 184.566C171.521 194.981 165.739 198.994 156.799 198.994H150.637V170.14ZM136.42 159.094V209.824H159.664C172.048 209.824 176.092 207.767 180.465 203.15C183.553 199.908 185.551 192.794 185.551 185.017C185.551 177.884 183.86 171.526 180.913 167.565C175.602 160.479 167.952 159.094 156.535 159.094H136.42ZM0.603516 159.023V209.824H15.0625V171.251L26.2659 171.254C29.9755 171.254 32.6198 172.178 34.4062 174.086C36.6719 176.499 37.5971 180.393 37.5971 187.517V209.824H51.6079V181.757C51.6079 161.724 38.8361 159.023 26.3396 159.023H0.603516ZM113.344 159.094L113.35 209.824H127.681V159.094H113.344Z" fill="black"/>
<path d="M39.1352 58.0838C39.1352 58.0838 57.5759 30.8835 94.3957 28.0695V18.2013C53.6131 21.4757 18.2969 56.0071 18.2969 56.0071C18.2969 56.0071 38.2994 113.815 94.3957 119.108V108.619C53.2296 103.441 39.1352 58.0838 39.1352 58.0838ZM94.3957 87.7582V97.3643C63.2833 91.819 54.6472 59.4863 54.6472 59.4863C54.6472 59.4863 69.5856 42.9423 94.3957 40.2594V50.8002C94.3769 50.8002 94.3638 50.7945 94.3482 50.7945C81.3265 49.2322 71.154 61.3935 71.154 61.3935C71.154 61.3935 76.8556 81.8664 94.3957 87.7582ZM94.3957 0V18.2013C95.5929 18.1095 96.7901 18.0317 97.9939 17.9907C144.359 16.4285 174.57 56.0071 174.57 56.0071C174.57 56.0071 139.872 98.1868 103.723 98.1868C100.41 98.1868 97.3088 97.8795 94.3957 97.3634V108.619C96.8868 108.935 99.4697 109.121 102.165 109.121C135.804 109.121 160.13 91.946 183.686 71.6189C187.591 74.7458 203.58 82.353 206.867 85.6831C184.47 104.429 132.273 119.54 102.68 119.54C99.8278 119.54 97.0884 119.368 94.3957 119.108V134.924H222.254V0H94.3957ZM94.3957 40.2594V28.0695C95.5806 27.9868 96.7745 27.9237 97.9939 27.8852C131.335 26.8382 153.209 56.529 153.209 56.529C153.209 56.529 129.583 89.3327 104.251 89.3327C100.605 89.3327 97.3375 88.747 94.3957 87.7582V50.8002C107.376 52.3682 109.987 58.1002 117.791 71.1052L135.146 56.4749C135.146 56.4749 122.477 39.8637 101.12 39.8637C98.7986 39.8629 96.5771 40.0259 94.3957 40.2594Z" fill="#77B900"/>
</g>
<defs>
<clipPath id="clip0_1162_171">
<rect width="288" height="212" fill="white" transform="translate(0.603516)"/>
</clipPath>
</defs>
</svg>
