<svg width="337" height="54" viewBox="0 0 337 54" fill="none" xmlns="http://www.w3.org/2000/svg">
<path d="M118.185 31.7269C129.366 31.7269 134.957 23.8003 134.957 15.8731C134.957 7.9465 129.366 0.335586 117.564 0.335586C108.867 0.0180664 76.877 0.0180664 76.877 0.0180664V53.607H86.8144V8.58C94.5793 8.58 114.146 8.58 118.184 8.58C123.774 8.58 126.57 10.4817 126.57 15.8731C126.57 20.3119 123.775 22.8486 118.494 22.8486H92.4065L123.465 53.2886H135.578L113.215 31.0924C115.39 31.7269 117.875 31.7269 118.185 31.7269Z" fill="#16325B"/>
<path d="M154.833 0.0180664H145.205V53.6061H154.833V0.0180664Z" fill="#16325B"/>
<path d="M276.894 8.26248V0.0180664H256.395H246.767H229.684L224.094 8.26248H246.767V53.6061H256.395V8.26248H276.894Z" fill="#16325B"/>
<path d="M205.148 22.2139C200.179 22.2139 187.756 22.2139 180.611 22.2139C175.643 22.2139 172.847 19.9947 172.847 15.5549C172.847 10.482 176.264 8.26248 180.611 8.26248C187.445 8.26248 214.154 8.26248 214.154 8.26248L218.502 0.0180664C218.502 0.0180664 185.891 0.0180664 180.301 0.0180664C171.604 0.0180664 164.461 6.67611 164.461 15.8731C164.461 24.1166 171.294 30.7752 180.611 30.7752C185.892 30.7752 201.731 30.7752 205.148 30.7752C210.739 30.7752 213.845 33.3129 213.845 38.0689C213.845 42.1905 210.428 45.0451 205.148 45.0451H171.294L166.325 53.6061C166.325 53.6061 196.141 53.6061 206.39 53.6061C216.64 53.6061 222.229 45.9974 222.229 37.4357C222.23 29.5064 215.708 22.2139 205.148 22.2139Z" fill="#16325B"/>
<path d="M31.5314 3.50708C29.3576 6.99393 0.472656 53.6074 0.472656 53.6074H10.7217L20.3505 37.7526H40.8492L46.1294 29.191H25.6301L36.8109 10.7995L62.9008 53.2889H73.1501C73.1501 53.2889 44.5755 7.31145 42.0902 3.18956C39.2954 -0.931723 34.3268 -0.615129 31.5314 3.50708Z" fill="#16325B"/>
<path d="M326.276 53.6063H336.526C336.526 53.6063 307.952 7.62821 305.466 3.506C302.672 -1.25062 297.702 -0.932796 294.907 3.18879C292.732 6.67596 263.848 53.2881 263.848 53.2881H274.097L283.725 37.4344H304.535L309.814 28.8727H289.316L300.498 10.481L326.276 53.6063Z" fill="#16325B"/>
</svg>
