<svg width="305" height="183" viewBox="0 0 305 183" fill="none" xmlns="http://www.w3.org/2000/svg">
<path d="M87.3059 67.1926C87.3059 70.8926 87.7059 73.8926 88.4059 76.0926C89.2059 78.2926 90.2059 80.6926 91.6059 83.2926C92.1059 84.0926 92.3059 84.8926 92.3059 85.5926C92.3059 86.5926 91.7059 87.5926 90.4059 88.5926L84.1059 92.7926C83.2059 93.3926 82.3059 93.6926 81.5059 93.6926C80.5059 93.6926 79.5059 93.1926 78.5059 92.2926C77.1059 90.7926 75.9059 89.1926 74.9059 87.5926C73.9059 85.8926 72.9059 83.9926 71.8059 81.6926C64.0059 90.8926 54.2059 95.4926 42.4059 95.4926C34.0059 95.4926 27.3059 93.0926 22.4059 88.2926C17.5059 83.4926 15.0059 77.0926 15.0059 69.0926C15.0059 60.5926 18.0059 53.6926 24.1059 48.4926C30.2059 43.2926 38.3059 40.6926 48.6059 40.6926C52.0059 40.6926 55.5059 40.9926 59.2059 41.4926C62.9059 41.9926 66.7059 42.7926 70.7059 43.6926V36.3926C70.7059 28.7926 69.1059 23.4926 66.0059 20.3926C62.8059 17.2926 57.4059 15.7926 49.7059 15.7926C46.2059 15.7926 42.6059 16.1926 38.9059 17.0926C35.2059 17.9926 31.6059 19.0926 28.1059 20.4926C26.5059 21.1926 25.3059 21.5926 24.6059 21.7926C23.9059 21.9926 23.4059 22.0926 23.0059 22.0926C21.6059 22.0926 20.9059 21.0926 20.9059 18.9926V14.0926C20.9059 12.4926 21.1059 11.2926 21.6059 10.5926C22.1059 9.89258 23.0059 9.19258 24.4059 8.49258C27.9059 6.69258 32.1059 5.19258 37.0059 3.99258C41.9059 2.69258 47.1059 2.09258 52.6059 2.09258C64.5059 2.09258 73.2059 4.79258 78.8059 10.1926C84.3059 15.5926 87.1059 23.7926 87.1059 34.7926V67.1926H87.3059ZM46.7059 82.3926C50.0059 82.3926 53.4059 81.7926 57.0059 80.5926C60.6059 79.3926 63.8059 77.1926 66.5059 74.1926C68.1059 72.2926 69.3059 70.1926 69.9059 67.7926C70.5059 65.3926 70.9059 62.4926 70.9059 59.0926V54.8926C68.0059 54.1926 64.9059 53.5926 61.7059 53.1926C58.5059 52.7926 55.4059 52.5926 52.3059 52.5926C45.6059 52.5926 40.7059 53.8926 37.4059 56.5926C34.1059 59.2926 32.5059 63.0926 32.5059 68.0926C32.5059 72.7926 33.7059 76.2926 36.2059 78.6926C38.6059 81.1926 42.1059 82.3926 46.7059 82.3926ZM127.006 93.1926C125.206 93.1926 124.006 92.8926 123.206 92.1926C122.406 91.5926 121.706 90.1926 121.106 88.2926L97.6059 10.9926C97.0059 8.99258 96.7059 7.69258 96.7059 6.99258C96.7059 5.39258 97.5059 4.49258 99.1059 4.49258H108.906C110.806 4.49258 112.106 4.79258 112.806 5.49258C113.606 6.09258 114.206 7.49258 114.806 9.39258L131.606 75.5926L147.206 9.39258C147.706 7.39258 148.306 6.09258 149.106 5.49258C149.906 4.89258 151.306 4.49258 153.106 4.49258H161.106C163.006 4.49258 164.306 4.79258 165.106 5.49258C165.906 6.09258 166.606 7.49258 167.006 9.39258L182.806 76.3926L200.106 9.39258C200.706 7.39258 201.406 6.09258 202.106 5.49258C202.906 4.89258 204.206 4.49258 206.006 4.49258H215.306C216.906 4.49258 217.806 5.29258 217.806 6.99258C217.806 7.49258 217.706 7.99258 217.606 8.59258C217.506 9.19258 217.306 9.99258 216.906 11.0926L192.806 88.3926C192.206 90.3926 191.506 91.6926 190.706 92.2926C189.906 92.8926 188.606 93.2926 186.906 93.2926H178.306C176.406 93.2926 175.106 92.9926 174.306 92.2926C173.506 91.5926 172.806 90.2926 172.406 88.2926L156.906 23.7926L141.506 88.1926C141.006 90.1926 140.406 91.4926 139.606 92.1926C138.806 92.8926 137.406 93.1926 135.606 93.1926H127.006ZM255.506 95.8926C250.306 95.8926 245.106 95.2926 240.106 94.0926C235.106 92.8926 231.206 91.5926 228.606 90.0926C227.006 89.1926 225.906 88.1926 225.506 87.2926C225.106 86.3926 224.906 85.3926 224.906 84.4926V79.3926C224.906 77.2926 225.706 76.2926 227.206 76.2926C227.806 76.2926 228.406 76.3926 229.006 76.5926C229.606 76.7926 230.506 77.1926 231.506 77.5926C234.906 79.0926 238.606 80.2926 242.506 81.0926C246.506 81.8926 250.406 82.2926 254.406 82.2926C260.706 82.2926 265.606 81.1926 269.006 78.9926C272.406 76.7926 274.206 73.5926 274.206 69.4926C274.206 66.6926 273.306 64.3926 271.506 62.4926C269.706 60.5926 266.306 58.8926 261.406 57.2926L246.906 52.7926C239.606 50.4926 234.206 47.0926 230.906 42.5926C227.606 38.1926 225.906 33.2926 225.906 28.0926C225.906 23.8926 226.806 20.1926 228.606 16.9926C230.406 13.7926 232.806 10.9926 235.806 8.79258C238.806 6.49258 242.206 4.79258 246.206 3.59258C250.206 2.39258 254.406 1.89258 258.806 1.89258C261.006 1.89258 263.306 1.99258 265.506 2.29258C267.806 2.59258 269.906 2.99258 272.006 3.39258C274.006 3.89258 275.906 4.39258 277.706 4.99258C279.506 5.59258 280.906 6.19258 281.906 6.79258C283.306 7.59258 284.306 8.39258 284.906 9.29258C285.506 10.0926 285.806 11.1926 285.806 12.5926V17.2926C285.806 19.3926 285.006 20.4926 283.506 20.4926C282.706 20.4926 281.406 20.0926 279.706 19.2926C274.006 16.6926 267.606 15.3926 260.506 15.3926C254.806 15.3926 250.306 16.2926 247.206 18.1926C244.106 20.0926 242.506 22.9926 242.506 27.0926C242.506 29.8926 243.506 32.2926 245.506 34.1926C247.506 36.0926 251.206 37.9926 256.506 39.6926L270.706 44.1926C277.906 46.4926 283.106 49.6926 286.206 53.7926C289.306 57.8926 290.806 62.5926 290.806 67.7926C290.806 72.0926 289.906 75.9926 288.206 79.3926C286.406 82.7926 284.006 85.7926 280.906 88.1926C277.806 90.6926 274.106 92.4926 269.806 93.7926C265.306 95.1926 260.606 95.8926 255.506 95.8926Z" fill="#252F3E"/>
<path fill-rule="evenodd" clip-rule="evenodd" d="M274.406 144.493C241.506 168.793 193.706 181.693 152.606 181.693C95.0062 181.693 43.1062 160.393 3.90624 124.993C0.806236 122.193 3.60624 118.393 7.30624 120.593C49.7062 145.193 102.006 160.093 156.106 160.093C192.606 160.093 232.706 152.493 269.606 136.893C275.106 134.393 279.806 140.493 274.406 144.493Z" fill="#FF9900"/>
<path fill-rule="evenodd" clip-rule="evenodd" d="M288.106 128.892C283.906 123.492 260.306 126.292 249.606 127.592C246.406 127.992 245.906 125.192 248.806 123.092C267.606 109.892 298.506 113.692 302.106 118.092C305.706 122.592 301.106 153.492 283.506 168.292C280.806 170.592 278.206 169.392 279.406 166.392C283.406 156.492 292.306 134.192 288.106 128.892Z" fill="#FF9900"/>
</svg>
