<svg width="296" height="73" viewBox="0 0 296 73" fill="none" xmlns="http://www.w3.org/2000/svg">
<path d="M73.1167 8.7937H91.2077C97.9189 8.7937 102.296 9.08735 106.089 13.1914C108.715 16.1231 110.174 19.6411 110.174 23.7456C110.174 27.8499 108.715 31.368 105.797 34.2998C102.879 37.2315 99.086 38.9905 89.457 38.9905H80.7033V63.3238H73.1167V8.7937ZM80.7033 32.8338H89.457C94.4174 32.8338 102.004 32.5413 102.004 23.4524C102.004 14.9504 95.001 14.9504 90.9159 14.9504H80.7033V32.8338ZM134.393 63.3238C133.809 61.5648 133.809 59.5126 133.809 57.7535C130.308 63.9102 125.347 64.4965 122.137 64.4965C113.384 64.4965 108.715 59.5126 108.715 53.3561C108.715 50.4243 109.882 45.4403 115.426 42.2154C119.511 39.87 125.347 39.87 128.557 39.87C130.308 39.87 131.475 39.87 133.517 40.1637C133.517 35.4729 133.517 33.4207 132.058 31.6616C130.599 29.9026 127.681 29.3162 125.639 29.3162C118.636 29.3162 118.052 34.3003 118.052 35.7661H111.049C111.341 33.7139 111.633 31.0752 113.676 28.7299C116.593 25.505 121.846 24.6255 125.931 24.6255C131.475 24.6255 137.311 26.3845 139.353 30.1958C140.52 32.5412 140.52 34.3002 140.52 36.0593L140.228 54.2359C140.228 54.8221 140.228 59.8063 140.812 63.6175H134.393V63.3238ZM129.432 44.5608C126.514 44.5608 115.718 44.5608 115.718 52.1833C115.718 54.5287 117.177 58.6332 123.596 58.6332C127.098 58.6332 130.016 57.1673 131.767 54.5287C133.226 51.8902 133.517 49.8379 133.517 44.5608C132.35 44.8545 131.183 44.5608 129.432 44.5608ZM146.648 8.7937H153.651V63.3238H146.648V8.7937ZM183.997 63.3238C183.413 61.5648 183.413 59.5126 183.413 57.7535C179.912 63.9102 174.952 64.4965 171.742 64.4965C162.988 64.4965 158.319 59.5126 158.319 53.3561C158.319 50.4243 159.487 45.4403 165.031 42.2154C169.116 39.87 174.952 39.87 178.161 39.87C179.912 39.87 181.079 39.87 183.122 40.1637C183.122 35.4729 183.122 33.4207 181.663 31.6616C180.204 29.9026 177.286 29.3162 175.243 29.3162C168.24 29.3162 167.657 34.3003 167.657 35.7661H160.654C160.946 33.7139 161.237 31.0752 163.28 28.7299C166.198 25.505 171.45 24.6255 175.535 24.6255C181.079 24.6255 186.915 26.3845 188.957 30.1958C190.125 32.5412 190.125 34.3002 190.125 36.0593L189.833 54.2359C189.833 54.8221 189.833 59.8063 190.416 63.6175H183.997V63.3238ZM179.328 44.5608C176.41 44.5608 165.614 44.5608 165.614 52.1833C165.614 54.5287 167.073 58.6332 173.493 58.6332C176.994 58.6332 179.912 57.1673 181.663 54.5287C183.122 51.8902 183.413 49.8379 183.413 44.5608C181.955 44.8545 181.079 44.5608 179.328 44.5608ZM196.544 29.9021V25.5046H203.547V31.6612C204.422 30.1953 207.048 24.9182 215.51 24.9182C219.012 24.9182 229.225 26.0909 229.225 37.8179V63.617H221.93V39.5769C221.93 37.2315 221.638 34.8861 219.887 33.1271C218.136 31.368 215.51 30.4886 213.176 30.4886C207.924 30.4886 203.255 34.2998 203.255 41.9222V63.617H196.252V29.9021H196.544ZM231.559 25.5046H238.27V17.2957L245.273 14.9504V25.2115H253.735V30.4886H245.273V53.0628C245.273 54.8218 245.273 58.0467 250.233 58.0467C251.692 58.0467 253.151 57.7531 253.735 57.7531V63.3234C252.568 63.617 250.525 63.9096 247.899 63.9096C241.188 63.9096 238.27 61.8573 238.27 55.7006V30.4879H231.559V25.5046ZM258.695 8.7937H267.157V16.7094H258.695V8.7937ZM259.279 25.5046H266.282V63.3238H259.279V25.5046ZM272.993 33.1271C272.993 30.4886 272.701 27.8499 272.701 25.5046H279.704L279.996 32.8338C281.455 27.5567 285.832 25.7977 289.042 25.5046C291.084 25.211 292.835 25.211 294.002 25.211V32.2471C293.71 32.2471 293.127 31.9535 292.543 31.9535C291.959 31.9535 291.376 31.9535 290.501 31.9535C282.039 31.9535 280.288 36.9374 280.288 43.3872V63.6162H273.285V33.1261L272.993 33.1271ZM29.64 1.46436C15.0505 1.46436 3.08708 13.4845 3.08708 28.1431C3.08708 42.8018 15.0505 54.8219 29.64 54.8219C44.2295 54.8219 56.1929 42.8018 56.1929 28.1431C56.1929 13.4845 44.2295 1.46436 29.64 1.46436ZM29.64 46.6131C19.4273 46.6131 11.2572 38.4042 11.2572 28.1431C11.2572 17.8821 19.4273 9.67332 29.64 9.67332C39.8527 9.67332 48.0228 17.8821 48.0228 28.1431C47.731 38.4042 39.5609 46.6131 29.64 46.6131ZM53.275 52.4764L29.64 62.7375L6.00499 52.4764L1.91992 59.8058L29.64 71.5326L57.3601 59.8058L53.275 52.4764Z" fill="#010101"/>
</svg>
