<svg width="352" height="111" viewBox="0 0 352 111" fill="none" xmlns="http://www.w3.org/2000/svg">
<g clip-path="url(#clip0_1162_235)">
<path fill-rule="evenodd" clip-rule="evenodd" d="M82.03 47.5383V46.6288L74.3185 39.9985H73.4198C71.2992 42.3389 68.0247 44.0928 64.3618 44.0928C58.6434 44.0928 54.1441 39.7378 54.1441 33.7593C54.1441 27.7808 58.6434 23.4258 64.3618 23.4258C68.0247 23.4258 71.2992 25.1797 73.4198 27.5201H74.3185L82.03 20.8898V19.9803C77.9815 15.0417 71.6225 11.8569 64.4241 11.8569C51.19 11.8569 41.168 21.2157 41.168 33.7593C41.168 34.2452 41.2777 34.6925 41.3103 35.1695C46.7262 38.849 51.5073 41.7938 55.6241 44.4898C61.559 48.2404 66.349 51.6918 70.2937 54.9003C75.2113 53.659 79.1975 50.966 82.03 47.5383ZM45.9936 47.3042C49.0841 51.0963 53.447 53.816 58.593 54.9773C55.1169 53.025 51.7505 51.1082 48.6155 48.987C47.696 48.4182 46.8774 47.8671 45.9936 47.3042Z" fill="#FC0000"/>
<path fill-rule="evenodd" clip-rule="evenodd" d="M126.667 52.8701L124.739 44.5511L124.033 44.0949C123.647 44.2904 123.327 44.5511 122.363 44.5511C120.883 44.5511 119.984 42.9898 119.213 41.7574C117.929 39.8051 116.9 38.7652 116.001 38.3119C120.69 36.2322 123.84 32.3334 123.84 26.743C123.84 18.0982 117.929 12.6382 106.943 12.6382H87.7949V54.8846H100.516V40.0658H101.673C104.499 40.0658 108.1 46.1746 109.77 48.9061C113.24 54.4313 116.001 55.6638 120.948 55.6638C123.262 55.6638 125.19 54.8194 126.346 53.7796L126.667 52.8701ZM110.861 27.457C110.861 30.2537 108.806 31.6165 106.427 31.6165H100.516V23.0368H106.427C108.806 23.0368 110.861 24.5981 110.861 27.457Z" fill="#FC0000"/>
<path fill-rule="evenodd" clip-rule="evenodd" d="M175.814 33.7749C175.814 21.2314 165.792 11.8726 152.492 11.8726C139.19 11.8726 129.168 21.2314 129.168 33.7749C129.168 46.3185 139.19 55.6773 152.492 55.6773C165.792 55.6773 175.814 46.2533 175.814 33.7749ZM162.835 33.7749C162.835 39.8186 158.208 44.1084 152.492 44.1084C146.774 44.1084 142.147 39.8186 142.147 33.7749C142.147 27.7313 146.774 23.4414 152.492 23.4414C158.208 23.4414 162.835 27.7313 162.835 33.7749Z" fill="#FC0000"/>
<path fill-rule="evenodd" clip-rule="evenodd" d="M204.168 12.6519L196.249 35.9052L188.745 12.6519H176.585L176.021 13.6265L191.563 54.8953H199.275L208.024 31.876L216.803 54.8953H224.515L240.086 13.6265L239.493 12.6519H227.362L219.829 36.0533L211.88 12.6519H204.168Z" fill="#FC0000"/>
<path fill-rule="evenodd" clip-rule="evenodd" d="M286.651 33.7118C286.651 21.1031 278.234 12.6538 264.549 12.6538H245.08V54.9002H264.549C278.234 54.9002 286.651 46.451 286.651 33.7118ZM273.672 33.777C273.672 40.665 269.623 44.5016 264.036 44.5016H257.801V23.0525H264.036C269.623 23.0525 273.672 26.889 273.672 33.777Z" fill="#FC0000"/>
<path fill-rule="evenodd" clip-rule="evenodd" d="M136.346 71.6286H148.803V103.473H161.556V71.6286H174.31V61.23H136.346V71.6286Z" fill="#FC0000"/>
<path fill-rule="evenodd" clip-rule="evenodd" d="M214.944 75.3329C214.944 66.6881 209.033 61.228 198.047 61.228H178.898V103.474H191.622V88.6556H194.642L202.543 103.474H215.202L215.78 102.5L207.298 86.8366C211.859 84.6917 214.944 80.8581 214.944 75.3329ZM201.965 76.0469C201.965 78.8435 199.909 80.2063 197.531 80.2063H191.622V71.6267H197.531C199.909 71.6267 201.965 73.188 201.965 76.0469Z" fill="#FC0000"/>
<path fill-rule="evenodd" clip-rule="evenodd" d="M222.656 103.473H235.41V61.23H222.656V103.473Z" fill="#FC0000"/>
<path fill-rule="evenodd" clip-rule="evenodd" d="M256.172 76.2443V61.23H243.418V103.473H256.172V90.4677L258.544 87.7421L269.222 103.473H282.569L283.162 102.496L267.739 80.1283L281.975 62.2047L281.679 61.23H268.035L256.172 76.2443Z" fill="#FC0000"/>
<path fill-rule="evenodd" clip-rule="evenodd" d="M299.474 93.0758V87.2395H314.008V77.4778H299.474V71.6297H318.457V61.228H286.721V103.474H318.753V93.0758H299.474Z" fill="#FC0000"/>
<path fill-rule="evenodd" clip-rule="evenodd" d="M115.882 103.968C125.201 103.968 133.289 99.4207 133.289 90.6514C133.289 81.0942 125.135 78.6234 117.94 76.5436C115.11 75.6993 112.216 74.7216 112.216 72.6419C112.216 71.1458 113.823 70.2363 116.267 70.2363C120.446 70.2363 123.979 72.8374 125.776 74.5291H126.675L132.648 67.3804V66.4708C129.501 62.898 123.08 60.1694 116.009 60.1694C106.115 60.1694 99.2454 65.4962 99.2454 73.2285C99.2454 81.5504 106.821 85.1914 113.245 87.0104C117.424 88.1807 120.256 88.3762 120.256 90.6514C120.256 92.2779 118.26 93.2526 115.173 93.2526C111.252 93.2526 106.5 90.7166 104.19 88.4414H103.291L97.3828 95.8508V96.7603C101.17 100.982 107.977 103.968 115.882 103.968Z" fill="#FC0000"/>
<path fill-rule="evenodd" clip-rule="evenodd" d="M88.8516 94.2277C85.77 87.1827 79.58 78.1438 55.3362 65.2359C44.1546 59.0263 25.0538 49.466 7.88086 31.2847C9.43799 37.8438 17.4164 52.2568 51.7178 70.2426C61.2207 75.436 77.2903 80.3065 88.8516 94.204" fill="#FC0000"/>
<path fill-rule="evenodd" clip-rule="evenodd" d="M87.3089 82.1704C84.3845 73.8455 79.1051 63.1861 54.0605 47.36C41.8674 39.3788 23.956 29.3564 0.40625 3.81006C2.09092 10.6981 9.53548 28.6098 47.0608 51.8631C59.3874 60.2058 75.2968 65.3518 87.3089 82.1704Z" fill="#FC0000"/>
</g>
<defs>
<clipPath id="clip0_1162_235">
<rect width="351" height="110" fill="white" transform="translate(0.40625 0.827637)"/>
</clipPath>
</defs>
</svg>
